<?xml version="1.0" standalone="no"?>
<!DOCTYPE svg PUBLIC "-//W3C//DTD SVG 20010904//EN"
 "http://www.w3.org/TR/2001/REC-SVG-20010904/DTD/svg10.dtd">
<svg version="1.0" xmlns="http://www.w3.org/2000/svg"
 width="500.000000pt" height="500.000000pt" viewBox="0 0 500.000000 500.000000"
 preserveAspectRatio="xMidYMid meet">

<g transform="translate(0.000000,500.000000) scale(0.100000,-0.100000)"
fill="#000000" stroke="none">
<path d="M2273 4620 c139 -30 304 -85 529 -176 256 -103 312 -130 304 -150 -3
-8 0 -14 6 -14 6 0 9 -2 6 -5 -3 -3 -29 4 -58 15 -29 12 -59 19 -67 16 -7 -3
-13 -1 -13 5 0 6 -7 8 -16 5 -10 -4 -13 -2 -8 6 5 7 2 9 -8 5 -9 -3 -79 21
-157 53 -165 69 -291 111 -343 113 -21 1 -32 4 -26 8 16 10 -173 51 -292 63
-146 15 -223 17 -293 6 -220 -33 -437 -186 -526 -372 -22 -47 -41 -75 -44 -67
-3 8 -4 0 -2 -17 2 -17 -1 -37 -6 -45 -7 -11 -9 -10 -10 6 0 11 -7 0 -15 -25
-17 -53 -20 -263 -4 -268 5 -2 8 -8 4 -13 -3 -5 2 -31 11 -58 13 -39 26 -56
66 -84 36 -25 45 -36 34 -41 -8 -3 -26 -1 -39 4 -24 9 -24 8 -10 -18 8 -15 14
-33 14 -39 0 -7 4 -13 10 -13 5 0 7 -13 4 -30 -7 -35 13 -70 27 -48 5 7 9 29
9 48 1 39 79 190 81 155 0 -15 4 -12 15 13 19 43 26 41 19 -5 l-6 -38 20 40
c27 55 26 40 -4 -51 -33 -100 -32 -108 8 -52 19 26 39 71 46 103 11 48 15 54
25 40 10 -14 12 -14 13 6 1 12 11 32 23 43 20 20 21 20 14 1 -4 -11 -13 -27
-21 -36 -7 -9 -11 -18 -8 -21 3 -3 -2 -22 -10 -42 -25 -58 0 -33 52 54 26 44
50 75 54 69 8 -13 19 14 19 47 0 13 4 24 10 24 5 0 6 7 3 17 -4 10 -2 14 4 10
6 -4 23 7 37 24 14 17 26 28 26 24 0 -10 -41 -89 -55 -105 -7 -8 -22 -40 -33
-70 -36 -98 -36 -98 -8 -67 14 15 26 37 26 47 0 10 5 22 11 25 6 4 8 12 6 19
-3 6 2 17 11 25 13 12 14 10 10 -22 -5 -42 -2 -44 24 -20 23 20 24 1 3 -37
-20 -36 -18 -46 5 -25 20 18 21 18 14 -1 -4 -12 6 -6 25 16 17 19 35 35 40 35
5 0 21 12 35 28 14 15 29 27 34 27 6 0 -15 -60 -45 -132 -30 -73 -57 -141 -60
-150 -6 -21 -19 -24 -25 -6 -3 9 -6 9 -12 0 -5 -8 3 -14 25 -19 28 -5 30 -7
14 -14 -17 -6 -16 -8 8 -8 15 -1 27 4 27 10 0 5 5 7 10 4 6 -4 7 -11 4 -17 -4
-6 1 -8 13 -4 10 3 45 -1 76 -9 75 -19 137 -20 137 -1 0 10 7 12 23 9 12 -3
19 -2 14 2 -4 5 1 17 10 28 17 19 17 20 0 14 -10 -4 -16 -3 -12 3 12 19 -32
29 -89 20 -31 -5 -60 -12 -65 -15 -5 -3 -35 -7 -66 -9 l-56 -4 6 29 c8 37 50
80 70 73 9 -4 17 1 21 12 11 35 21 49 37 49 9 0 39 23 67 50 28 28 48 42 44
32 -5 -14 3 -11 38 12 25 17 50 37 57 44 10 13 56 15 68 4 2 -3 23 14 46 36
44 44 87 72 87 57 0 -14 31 0 60 25 14 13 36 26 50 30 14 4 43 20 65 35 39 26
199 110 210 110 4 0 3 -4 0 -10 -3 -5 -2 -10 2 -10 5 0 14 9 21 21 9 14 19 18
32 14 11 -4 20 -2 20 4 0 5 9 13 20 16 11 3 23 18 26 32 6 21 8 23 16 9 5 -9
16 -16 24 -16 8 0 17 -8 21 -17 3 -10 18 -45 34 -78 15 -33 33 -82 40 -109 10
-42 14 -47 24 -32 11 14 15 10 30 -29 9 -26 15 -55 12 -66 -3 -12 0 -19 10
-19 10 0 14 -9 12 -32 -1 -18 1 -40 4 -48 3 -8 8 -42 11 -75 3 -33 8 -71 12
-85 l7 -25 -19 21 c-54 60 -191 98 -243 66 -17 -10 -30 -11 -45 -4 -11 5 -30
6 -41 1 -11 -4 -33 -8 -48 -8 -48 -1 -171 -50 -189 -76 -13 -17 -15 -30 -8
-54 7 -27 6 -31 -10 -31 -10 0 -22 -4 -25 -10 -4 -6 1 -7 12 -4 17 5 17 5 1
-9 -21 -16 -37 -107 -20 -107 6 0 14 9 17 20 10 30 25 24 25 -10 0 -28 2 -30
40 -30 22 0 40 -4 40 -10 0 -5 9 -10 21 -10 16 0 19 4 14 21 -9 27 8 39 58 39
20 0 37 4 37 10 0 6 9 6 26 0 31 -12 37 -12 30 -1 -7 11 68 35 113 37 20 0 50
2 66 3 l30 3 -35 10 c-29 9 -32 12 -16 17 16 6 12 10 -22 24 -31 13 -73 17
-155 17 -121 0 -163 -12 -222 -63 -41 -36 -43 -26 -5 21 25 32 49 46 118 73
48 18 103 39 122 48 19 8 42 16 50 17 8 0 25 4 38 8 14 5 22 3 22 -4 0 -6 4
-8 10 -5 14 9 160 -6 154 -16 -3 -5 9 -9 27 -9 18 0 41 -8 52 -17 19 -17 20
-17 10 2 -13 26 -5 92 13 99 8 3 14 -1 14 -8 0 -8 7 -13 16 -12 10 1 22 -17
34 -53 11 -30 28 -64 38 -75 31 -34 71 -132 87 -208 6 -31 22 -37 27 -10 2 9
12 -13 22 -50 18 -63 36 -82 36 -37 0 21 10 25 27 8 8 -8 14 4 24 40 7 28 17
51 22 51 4 0 6 8 2 19 -3 10 -2 29 3 41 8 23 10 21 38 -26 l29 -49 3 44 c4 52
-22 158 -55 221 l-23 45 5 -55 c6 -64 4 -60 -25 39 -15 49 -25 70 -30 61 -20
-33 -39 -18 -51 38 -6 31 -33 114 -60 184 -56 146 -61 174 -19 103 16 -27 35
-54 42 -60 18 -13 80 -116 113 -186 23 -51 25 -52 25 -22 0 100 -146 356 -287
503 -24 24 -43 47 -43 51 0 13 35 4 54 -13 11 -10 24 -18 28 -18 14 0 -10 37
-39 60 l-27 21 -18 -23 c-17 -23 -18 -23 -18 -2 0 34 -71 89 -182 143 -247
117 -371 166 -498 196 -63 15 -135 33 -160 40 -25 8 -74 16 -110 19 l-65 6 88
-20z m116 -116 c3 -3 -23 -4 -57 -3 -34 1 -62 6 -62 10 0 8 109 1 119 -7z
m710 -464 c0 -10 -3 -8 -9 5 -12 27 -12 43 0 25 5 -8 9 -22 9 -30z m-1852 -27
c-3 -10 -5 -4 -5 12 0 17 2 24 5 18 2 -7 2 -21 0 -30z m1967 -103 l6 -55 -14
35 c-8 19 -15 51 -15 70 -1 53 16 16 23 -50z m-1977 33 c-3 -10 -5 -4 -5 12 0
17 2 24 5 18 2 -7 2 -21 0 -30z m1913 -49 c39 -85 49 -121 31 -110 -9 6 -81
171 -81 187 0 23 13 2 50 -77z m190 -10 c34 -77 39 -103 10 -59 -11 17 -20 37
-20 46 0 9 -6 22 -14 28 -17 14 -28 51 -15 51 5 0 22 -30 39 -66z m-1000 13
c0 -18 -35 -59 -43 -50 -4 3 4 18 16 34 26 33 27 33 27 16z m-380 -58 c-7 -11
-14 -19 -16 -16 -7 7 7 37 17 37 6 0 5 -9 -1 -21z m-120 -25 c0 -8 -5 -12 -10
-9 -6 4 -8 11 -5 16 9 14 15 11 15 -7z m83 -331 c-7 -2 -19 -2 -25 0 -7 3 -2
5 12 5 14 0 19 -2 13 -5z m967 -84 c0 -5 -4 -9 -10 -9 -5 0 -10 7 -10 16 0 8
5 12 10 9 6 -3 10 -10 10 -16z m-176 -25 c9 -22 2 -27 -24 -19 -17 5 -19 10
-9 21 15 18 25 18 33 -2z"/>
<path d="M2624 4598 c-3 -4 8 -10 23 -14 57 -12 125 -37 166 -59 76 -42 267
-117 282 -111 9 3 32 -4 53 -16 20 -12 49 -28 65 -35 15 -8 32 -23 37 -34 6
-10 16 -19 21 -19 14 0 111 -77 123 -97 7 -13 10 -13 17 -2 14 23 10 55 -13
98 -23 43 -89 111 -108 111 -6 0 -13 6 -16 14 -3 8 -17 17 -32 21 -14 3 -31
13 -37 21 -6 8 -44 21 -85 29 -81 14 -252 59 -297 76 -35 14 -193 27 -199 17z"/>
<path d="M3480 3711 c0 -6 4 -13 10 -16 6 -3 7 1 4 9 -7 18 -14 21 -14 7z"/>
<path d="M1736 3653 c-6 -14 -5 -15 5 -6 7 7 10 15 7 18 -3 3 -9 -2 -12 -12z"/>
<path d="M1552 3539 c-13 -27 -32 -80 -43 -117 -12 -37 -24 -78 -28 -92 -6
-18 -14 -24 -30 -22 -19 3 -21 0 -16 -25 5 -23 2 -20 -14 12 l-20 40 -1 -30
-1 -30 -14 25 -14 25 -1 -32 c0 -61 32 -112 72 -113 10 0 32 16 49 35 18 19
37 32 43 28 6 -3 8 -3 4 2 -4 4 -2 19 5 34 13 26 13 45 4 161 -3 36 -2 59 0
51 4 -9 13 5 25 34 25 65 9 77 -20 14z"/>
<path d="M1003 3538 c-5 -7 -13 -21 -16 -31 -6 -15 -4 -16 13 -7 25 14 34 30
23 41 -6 6 -14 5 -20 -3z"/>
<path d="M3580 3537 c0 -1 9 -27 19 -57 21 -60 37 -72 58 -44 13 18 14 17 35
-4 18 -17 23 -36 26 -92 4 -63 -9 -147 -28 -175 -11 -18 -30 -65 -25 -65 8 0
43 74 53 115 11 38 16 113 13 183 -1 38 -42 82 -76 82 -26 0 -29 35 -5 50 11
7 3 10 -27 10 -24 0 -43 -1 -43 -3z"/>
<path d="M1743 3499 c-7 -18 -11 -34 -9 -37 7 -7 27 39 24 55 -2 9 -8 2 -15
-18z"/>
<path d="M1568 3481 c-9 -21 -12 -44 -8 -51 8 -14 13 -3 25 58 9 43 1 40 -17
-7z"/>
<path d="M1421 3470 c-5 -17 -6 -30 -2 -30 12 0 31 49 22 55 -5 3 -14 -9 -20
-25z"/>
<path d="M1990 3361 c-30 -15 -71 -38 -90 -49 l-35 -22 42 0 c32 0 41 3 37 14
-7 20 36 33 47 15 7 -11 9 -11 9 2 0 25 26 18 28 -8 1 -17 -4 -23 -21 -24 -58
-4 56 -14 123 -12 99 4 142 12 135 24 -4 5 -11 6 -17 3 -6 -4 -8 -2 -4 4 3 6
2 14 -4 17 -8 5 -8 11 0 20 16 20 -58 45 -133 45 -49 0 -74 -6 -117 -29z m187
-44 c-2 -7 -11 -13 -20 -15 -12 -3 -17 4 -17 23 0 23 2 25 21 15 11 -6 18 -17
16 -23z"/>
<path d="M1072 3258 c-7 -7 -12 -17 -12 -22 -1 -18 -60 -77 -71 -71 -5 4 -32
1 -60 -5 -43 -11 -51 -16 -56 -41 -3 -16 -11 -29 -19 -29 -11 0 -10 -8 1 -42
8 -24 17 -55 20 -70 6 -30 22 -37 98 -42 26 -1 53 -8 59 -14 21 -21 35 -13 73
43 21 30 44 55 51 55 22 0 24 29 2 32 -51 7 -87 132 -48 165 10 9 15 23 13 34
-6 21 -33 25 -51 7z"/>
<path d="M3401 3204 c0 -11 3 -14 6 -6 3 7 2 16 -1 19 -3 4 -6 -2 -5 -13z"/>
<path d="M1436 3158 c3 -4 9 -8 15 -8 5 0 9 4 9 8 0 5 -7 9 -15 9 -8 0 -12 -4
-9 -9z"/>
<path d="M3403 3096 c0 -14 3 -26 8 -26 11 0 11 21 0 39 -6 9 -8 5 -8 -13z"/>
<path d="M3460 3099 c0 -11 -10 -38 -22 -59 -17 -29 -20 -42 -11 -51 18 -18
50 -1 57 31 5 26 10 30 38 30 32 1 87 35 75 46 -3 4 -21 -2 -39 -13 -18 -11
-47 -22 -64 -26 -29 -6 -30 -5 -26 29 2 19 1 34 -2 34 -3 0 -6 -9 -6 -21z"/>
<path d="M3401 3030 c0 -33 1 -34 10 -11 6 16 6 28 -1 35 -7 7 -10 -1 -9 -24z"/>
<path d="M2573 2885 c-46 -20 -41 -34 9 -28 45 5 71 19 62 34 -7 13 -34 10
-71 -6z"/>
<path d="M2638 2843 c7 -3 16 -2 19 1 4 3 -2 6 -13 5 -11 0 -14 -3 -6 -6z"/>
<path d="M2635 2760 c3 -5 8 -10 11 -10 2 0 4 5 4 10 0 6 -5 10 -11 10 -5 0
-7 -4 -4 -10z"/>
<path d="M2950 2725 c0 -8 5 -15 10 -15 6 0 10 -4 10 -9 0 -4 -30 -11 -67 -14
-38 -4 -108 -20 -158 -37 -49 -16 -74 -27 -55 -24 53 9 94 9 108 0 7 -4 12
-22 13 -39 l1 -32 10 28 c13 36 28 35 28 -2 0 -21 -6 -32 -20 -36 -24 -7 -26
-30 -5 -39 8 -3 15 -2 15 2 0 5 11 12 24 18 30 11 116 112 116 135 0 10 5 19
11 21 9 3 9 9 1 25 -14 26 -42 38 -42 18z"/>
<path d="M2010 2578 c0 -19 2 -20 10 -8 13 19 13 30 0 30 -5 0 -10 -10 -10
-22z"/>
<path d="M2508 2593 c7 -3 16 -2 19 1 4 3 -2 6 -13 5 -11 0 -14 -3 -6 -6z"/>
<path d="M2095 2583 c-11 -3 -24 -9 -28 -13 -11 -10 1 -50 15 -50 5 0 21 -9
35 -20 26 -20 73 -28 73 -12 0 5 -9 19 -20 32 -23 26 -27 48 -6 31 11 -9 12
-6 8 14 -4 25 -25 30 -77 18z"/>
<path d="M2676 2503 c-7 -7 -15 -8 -135 -11 -59 -2 -63 -3 -45 -17 10 -8 28
-14 39 -15 17 0 18 2 5 11 -12 8 -9 9 10 4 51 -14 88 -17 94 -6 9 14 46 15 46
1 0 -5 -5 -10 -12 -10 -6 0 -9 -2 -7 -5 7 -6 69 17 69 26 0 3 -11 11 -25 17
-31 14 -30 14 -39 5z"/>
<path d="M2760 2500 c0 -5 5 -10 11 -10 5 0 7 5 4 10 -3 6 -8 10 -11 10 -2 0
-4 -4 -4 -10z"/>
<path d="M2315 2467 c-10 -8 -14 -16 -9 -19 5 -3 17 3 27 14 20 21 9 24 -18 5z"/>
<path d="M3376 2472 c-16 -15 2 -171 30 -267 8 -27 15 -75 17 -105 l2 -55 18
54 c25 79 23 165 -5 191 -18 16 -19 20 -6 20 23 0 45 -24 57 -62 13 -43 31
-177 31 -235 0 -47 14 -54 34 -17 6 10 18 30 27 44 26 40 33 71 18 81 -15 9
-40 129 -27 129 5 0 2 14 -7 30 -9 17 -13 30 -9 30 4 0 1 6 -5 13 -6 8 -8 17
-4 20 3 4 -2 9 -11 13 -9 3 -16 11 -16 18 0 6 -7 20 -15 30 -13 17 -17 17 -31
5 -15 -12 -17 -12 -13 0 9 27 -66 83 -85 63z"/>
<path d="M2255 2460 c-3 -5 1 -10 10 -10 9 0 13 5 10 10 -3 6 -8 10 -10 10 -2
0 -7 -4 -10 -10z"/>
<path d="M3297 2445 c-4 -8 -2 -17 2 -20 5 -2 11 4 14 15 6 23 -8 27 -16 5z"/>
<path d="M3250 2385 c0 -2 7 -8 15 -15 12 -10 15 -10 15 2 0 8 -7 15 -15 15
-8 0 -15 -1 -15 -2z"/>
<path d="M3691 2260 c-18 -33 -31 -65 -29 -69 4 -12 64 76 73 107 13 43 -13
21 -44 -38z"/>
<path d="M1674 2295 c-4 -9 -4 -27 -2 -40 3 -14 2 -25 -2 -25 -5 0 -3 -11 3
-24 l11 -23 17 21 c14 18 20 19 43 8 29 -13 32 -5 20 56 -6 30 -7 31 -31 15
-23 -15 -24 -15 -30 5 -6 25 -21 29 -29 7z"/>
<path d="M1721 2178 c2 -59 113 -243 161 -269 25 -14 28 -19 -35 70 -16 21
-39 64 -51 95 -13 31 -26 53 -29 49 -4 -3 -9 2 -13 11 -4 10 -2 22 5 29 18 18
13 27 -14 27 -14 0 -25 -6 -24 -12z"/>
<path d="M3065 2120 c3 -5 8 -10 11 -10 2 0 4 5 4 10 0 6 -5 10 -11 10 -5 0
-7 -4 -4 -10z"/>
<path d="M3007 2077 c-11 -29 -9 -53 4 -40 6 6 9 21 7 34 -3 21 -4 22 -11 6z"/>
<path d="M2965 2039 c-5 -15 -10 -18 -15 -9 -5 8 -20 0 -48 -29 -22 -23 -45
-41 -51 -41 -6 0 -11 -7 -11 -15 0 -8 -4 -15 -9 -15 -5 0 -16 -6 -23 -13 -7
-6 -30 -21 -51 -32 -21 -11 -41 -24 -44 -28 -8 -14 6 -21 19 -10 7 6 24 14 38
18 29 8 157 92 183 119 9 10 17 23 17 28 0 5 5 6 10 3 6 -3 10 3 10 14 0 28
-17 35 -25 10z"/>
<path d="M4040 1948 c0 -21 2 -38 4 -38 9 0 12 50 5 62 -6 8 -9 -1 -9 -24z"/>
<path d="M1260 1841 c0 -5 5 -13 10 -16 6 -3 10 -2 10 4 0 5 -4 13 -10 16 -5
3 -10 2 -10 -4z"/>
<path d="M2650 1836 c0 -9 7 -12 20 -9 11 3 20 9 20 14 0 5 -9 9 -20 9 -11 0
-20 -6 -20 -14z"/>
<path d="M2615 1829 c-11 -16 -1 -19 13 -3 7 8 8 14 3 14 -5 0 -13 -5 -16 -11z"/>
<path d="M2565 1820 c3 -5 8 -10 11 -10 2 0 4 5 4 10 0 6 -5 10 -11 10 -5 0
-7 -4 -4 -10z"/>
<path d="M3917 1758 c-15 -11 -51 -107 -43 -115 1 -1 16 26 33 62 17 36 30 65
29 65 -1 0 -10 -6 -19 -12z"/>
<path d="M3625 1687 c-11 -7 -45 -31 -76 -54 -31 -23 -117 -81 -190 -129 -74
-47 -135 -90 -137 -95 -2 -5 -9 -9 -15 -9 -14 0 -66 -39 -53 -40 11 0 116 59
139 78 22 19 54 38 90 53 15 6 27 15 27 20 0 5 5 9 11 9 11 0 229 167 229 176
0 5 0 5 -25 -9z"/>
<path d="M1680 1638 c19 -12 82 -52 140 -89 110 -70 269 -153 277 -146 2 3
-14 15 -36 28 -274 160 -398 229 -409 229 -4 0 9 -10 28 -22z"/>
<path d="M3626 1554 c-71 -36 -135 -77 -196 -126 -49 -39 -191 -81 -255 -75
-42 4 -60 -1 -116 -29 -37 -19 -71 -34 -77 -34 -7 0 -14 -12 -17 -27 -4 -16
-8 -38 -11 -51 -6 -31 7 -172 16 -172 4 0 10 9 13 20 3 13 14 20 31 21 14 1
31 3 36 4 6 1 24 3 40 4 17 0 30 5 30 9 0 5 -27 5 -61 0 -69 -9 -79 -6 -79 26
0 20 7 24 83 35 112 18 281 57 344 81 67 25 210 96 217 109 4 5 -33 -10 -81
-33 -90 -44 -160 -70 -223 -81 -19 -3 -62 -12 -95 -20 -99 -24 -175 -33 -175
-22 0 5 -15 7 -36 4 -32 -5 -35 -4 -32 16 2 16 15 24 53 35 262 72 450 157
570 257 121 101 121 100 21 49z"/>
<path d="M3086 1517 c-30 -32 -71 -105 -64 -112 4 -4 82 97 102 133 13 22 -8
10 -38 -21z"/>
<path d="M2549 1367 c13 -15 28 -24 32 -21 14 8 10 21 -8 28 -10 3 -25 9 -33
12 -8 4 -4 -5 9 -19z"/>
<path d="M2161 1377 c9 -8 89 -36 89 -32 0 8 -58 35 -76 35 -10 0 -15 -2 -13
-3z"/>
<path d="M1967 1325 c8 -23 81 -66 86 -52 3 7 6 6 6 -4 1 -17 36 -36 85 -45
16 -3 34 -8 39 -11 6 -3 7 -1 3 6 -11 17 -225 121 -219 106z"/>
<path d="M2280 1336 c0 -2 11 -6 25 -8 13 -3 22 -1 19 3 -5 9 -44 13 -44 5z"/>
<path d="M2617 1273 c-6 -61 3 -176 14 -187 2 -2 4 51 4 119 0 138 -9 171 -18
68z"/>
<path d="M2570 1280 c0 -10 -15 -11 -62 -7 l-63 6 25 -19 c14 -10 42 -23 62
-28 36 -9 37 -9 43 20 4 16 4 32 1 35 -3 4 -6 0 -6 -7z"/>
<path d="M2700 1263 c0 -21 3 -24 9 -14 5 8 7 20 4 28 -8 21 -13 15 -13 -14z"/>
<path d="M2759 1183 l-35 -14 17 -67 c10 -37 18 -67 19 -67 0 0 3 -33 5 -74 3
-41 10 -80 16 -85 9 -8 10 -7 5 2 -12 20 -8 153 5 168 14 17 5 44 -16 44 -8 0
-15 7 -15 16 0 11 6 14 20 9 18 -6 20 -2 20 39 0 25 -1 46 -2 45 -2 -1 -19 -8
-39 -16z"/>
<path d="M2971 1004 c0 -11 3 -14 6 -6 3 7 2 16 -1 19 -3 4 -6 -2 -5 -13z"/>
<path d="M2790 766 c0 -8 4 -17 9 -20 5 -4 7 3 4 14 -6 23 -13 26 -13 6z"/>
</g>
</svg>
